<svg width="120" height="120" viewBox="0 0 120 120" fill="none" xmlns="http://www.w3.org/2000/svg">
<path d="M95.2033 68.255C86.2617 68.255 77.6867 68.255 68.6317 68.255C73.0583 48.7917 67.84 31.6367 57.3617 15.5C74.9933 19.5517 93.6583 45.505 95.2033 68.255Z" fill="white"/>
<path d="M62.1233 34.735C67.64 45.2217 67.7383 56.1583 64.8333 67.2883C64.6183 68.1133 63.2067 69.0333 62.2383 69.185C55.2433 70.2817 48.2183 71.19 39.9783 72.3267C53.1483 62.5067 61.5167 50.9317 62.1233 34.735Z" fill="white"/>
<path d="M95.4333 103.112C89.285 104.562 81.4733 103.695 73.7433 102.022C63.935 99.8967 54.2733 96.9667 44.3933 95.325C36.25 93.9717 27.88 93.99 18.265 93.305C22.8967 92.4967 26.4367 91.2617 29.9267 91.39C38.7133 91.7117 47.6367 91.84 56.2167 93.5233C69.8483 96.1967 83.2433 100.072 95.4333 103.112Z" fill="white"/>
<path d="M27.7867 98.79C38.8717 96.5383 49.54 98.1217 58.97 104.572C48.7133 102.67 38.1133 100.705 27.7867 98.79Z" fill="white"/>
<path d="M103.708 89.8617C104.697 88.95 105.665 88.0567 106.62 87.175L107.233 86.61C108.358 85.5717 109.465 84.5517 110.558 83.5417L112.735 81.5333C113.412 80.9083 114.085 80.2867 114.757 79.6667L116.182 78.3517C117.452 77.18 118.72 76.01 119.998 74.83C94.9867 66.58 20.9783 70.685 0 95.2667C1.72167 94.6967 2.84333 94.36 3.93833 93.9567C24.97 86.2217 45.0933 88.0083 67.56 92.415C82.8817 95.42 90.3117 97.9133 94.2583 98.4633L103.708 89.8617Z" fill="white"/>
</svg>
